<?xml version="1.0" encoding="UTF-8"?>
<svg viewBox="0 0 210 297" version="1.1" width="28px" id="svg1" xml:space="preserve" xmlns="http://www.w3.org/2000/svg" class="astro-WY2CUZMR">
                            <defs id="defs1" class="astro-WY2CUZMR"></defs>
                            <g id="layer1" class="astro-WY2CUZMR">
                                <path style="fill:#9333ea;fill-opacity:1;stroke-width:1.38412" d="m 126.99239,469.81637 c -13.49866,-1.755 -28.9667,-6.45454 -42.561193,-12.93105 -46.8283,-22.30931 -65.226521,-61.48749 -62.458118,-133.00171 3.4212,-88.37749 34.387839,-162.32694 91.039981,-217.40679 50.88526,-49.473028 122.67836,-79.794444 215.0229,-90.81374 23.18529,-2.766656 90.47543,-2.362377 115.57385,0.694368 119.14716,14.510975 216.22431,64.522592 263.67693,135.839492 24.10191,36.22293 32.77868,61.77771 49.83456,146.77254 5.65222,28.16681 10.85899,53.17176 11.57059,55.56657 l 1.29383,4.3542 -97.09632,0.9879 c -129.7091,1.3197 -125.31883,1.33996 -132.29458,-0.6103 -12.24641,-3.42381 -16.83289,-12.26232 -23.53557,-45.35487 -4.95129,-24.44565 -9.99309,-35.53138 -22.42354,-49.30417 -21.7967,-24.15049 -54.6047,-38.42039 -93.36,-40.60709 -40.01908,-2.258 -73.12628,8.19119 -94.7292,29.89814 -16.49702,16.57645 -26.11378,37.93115 -35.25606,78.28846 -9.23251,40.7556 -13.68249,57.58746 -18.28336,69.1559 -16.9791,42.69253 -44.78581,63.02476 -93.64458,68.47284 -14.72017,1.64139 -19.74089,1.64129 -32.37012,-6.9e-4 z" id="path2" transform="scale(0.26458333)" class="astro-WY2CUZMR"></path>
                                <path style="fill:#746ccb;fill-opacity:1;stroke-width:1.38412" d="M 345.96084,1112.0224 C 269.80331,1105.2138 199.79959,1082.3799 147.27863,1047.2158 101.97996,1016.8872 76.637608,986.66788 50.617924,931.95335 35.157571,899.44313 23.889038,863.07321 19.477953,831.44706 c -2.751608,-19.7282 -2.822193,-52.9834 -0.144906,-68.27072 7.072775,-40.38555 27.928486,-70.0531 60.94513,-86.69532 35.548503,-17.91842 71.132453,-20.09477 110.256713,-6.74343 20.54994,7.01278 33.0267,14.74608 48.29503,29.93405 21.04088,20.93015 26.18582,33.64426 35.28645,87.19943 6.26549,36.87096 9.41254,49.35623 16.02677,63.5827 12.18341,26.20519 29.30858,40.27886 59.7446,49.09889 45.96184,13.31921 99.64084,3.2729 135.72468,-25.40161 21.07107,-16.74441 28.98299,-30.50937 35.59973,-61.93546 5.45739,-25.91986 9.32231,-34.35544 17.9513,-39.18056 7.15015,-3.99817 -7.75444,-3.6613 138.01627,-3.1194 l 93.08194,0.34603 -0.005,10.03485 c -0.0114,24.1854 -5.47251,64.7428 -12.42684,92.28895 -11.94941,47.33163 -34.129,91.83238 -62.18842,124.77376 -54.36074,63.81878 -147.84706,105.12088 -259.6445,114.71048 -19.05717,1.6346 -71.53136,1.6071 -90.03632,-0.047 z" id="path4" transform="scale(0.26458333)" class="astro-WY2CUZMR"></path>
                            </g>
                        </svg>